<svg width="96" height="24" viewBox="0 0 96 24" fill="none" xmlns="http://www.w3.org/2000/svg">
<path d="M96 22.9444H89.7192L81.3554 10.3186V22.9444H75.0745V0.352547H81.3554L89.7192 13.1386V0.352547H96V22.9444Z" fill="#054646"/>
<path d="M71.4977 0.352547V22.9444H65.2169V0.352547H71.4977Z" fill="#054646"/>
<path d="M55.3843 7.7869C55.0212 7.18872 54.5191 6.72941 53.8782 6.40896C53.2587 6.08851 52.5216 5.92828 51.6671 5.92828C50.0862 5.92828 48.8364 6.441 47.9178 7.46645C47.0206 8.49189 46.5719 9.86984 46.5719 11.6003C46.5719 13.5443 47.0526 15.0291 48.014 16.0545C48.9967 17.0586 50.4173 17.5607 52.276 17.5607C54.4764 17.5607 56.0466 16.5673 56.9866 14.5805H50.6737V10.0621H62.4022V16.1507C61.9109 17.347 61.1845 18.4686 60.2232 19.5154C59.2832 20.5622 58.0868 21.4275 56.6341 22.1111C55.1814 22.7733 53.5257 23.1045 51.6671 23.1045C49.4026 23.1045 47.3944 22.6238 45.6426 21.6625C43.9122 20.6797 42.5663 19.3232 41.6049 17.5927C40.6649 15.8409 40.1949 13.8434 40.1949 11.6003C40.1949 9.37848 40.6649 7.40236 41.6049 5.67192C42.5663 3.92012 43.9122 2.56354 45.6426 1.60219C47.373 0.619469 49.3705 0.12811 51.635 0.12811C54.4764 0.12811 56.8264 0.81174 58.685 2.179C60.5436 3.54626 61.6972 5.41556 62.1459 7.7869H55.3843Z" fill="#054646"/>
<path d="M26.5722 23.1686C24.4573 23.1686 22.5132 22.6773 20.74 21.6946C18.9669 20.6905 17.5569 19.3125 16.5101 17.5607C15.4846 15.7876 14.9719 13.7901 14.9719 11.5683C14.9719 9.3465 15.4846 7.3597 16.5101 5.6079C17.5569 3.83474 18.9669 2.45679 20.74 1.47408C22.5132 0.491359 24.4573 0 26.5722 0C28.7086 0 30.6527 0.491359 32.4045 1.47408C34.1776 2.45679 35.5769 3.83474 36.6024 5.6079C37.6278 7.3597 38.1405 9.3465 38.1405 11.5683C38.1405 13.7901 37.6278 15.7876 36.6024 17.5607C35.5769 19.3125 34.1776 20.6905 32.4045 21.6946C30.6313 22.6773 28.6872 23.1686 26.5722 23.1686ZM26.5722 17.3364C28.1745 17.3364 29.4349 16.813 30.3536 15.7662C31.2936 14.7194 31.7636 13.3201 31.7636 11.5683C31.7636 9.77377 31.2936 8.36378 30.3536 7.33834C29.4349 6.29153 28.1745 5.76813 26.5722 5.76813C24.9486 5.76813 23.6775 6.29153 22.7589 7.33834C21.8402 8.36378 21.3809 9.77377 21.3809 11.5683C21.3809 13.3415 21.8402 14.7515 22.7589 15.7983C23.6775 16.8237 24.9486 17.3364 26.5722 17.3364Z" fill="#054646"/>
<path d="M6.28085 18.1376H13.2987V22.9444H0V0.352547H6.28085V18.1376Z" fill="#054646"/>
</svg>
