<svg width="208" height="12" viewBox="0 0 208 12" fill="none" xmlns="http://www.w3.org/2000/svg">
<path d="M134.901 9.75653H208V10.3084H134.901V9.75653Z" fill="#054646"/>
<path d="M207.923 2.53846L206.135 8.65277H204.468L203.354 4.38158L202.239 8.65277H200.561L198.762 2.53846H200.33L201.411 7.19593L202.581 2.53846H204.215L205.362 7.1849L206.444 2.53846H207.923Z" fill="#054646"/>
<path d="M195.124 8.75223C194.535 8.75223 194.005 8.62346 193.534 8.36594C193.063 8.10106 192.692 7.72949 192.42 7.25124C192.155 6.77298 192.022 6.22115 192.022 5.59574C192.022 4.97033 192.158 4.4185 192.431 3.94024C192.71 3.46199 193.089 3.0941 193.568 2.83658C194.046 2.5717 194.579 2.43925 195.168 2.43925C195.756 2.43925 196.29 2.5717 196.768 2.83658C197.246 3.0941 197.622 3.46199 197.894 3.94024C198.173 4.4185 198.313 4.97033 198.313 5.59574C198.313 6.22115 198.17 6.77298 197.883 7.25124C197.603 7.72949 197.221 8.10106 196.735 8.36594C196.257 8.62346 195.72 8.75223 195.124 8.75223ZM195.124 7.40575C195.403 7.40575 195.664 7.33953 195.907 7.20709C196.157 7.0673 196.356 6.86128 196.503 6.58904C196.65 6.3168 196.724 5.9857 196.724 5.59574C196.724 5.01448 196.569 4.56933 196.26 4.2603C195.959 3.94392 195.587 3.78573 195.146 3.78573C194.704 3.78573 194.333 3.94392 194.031 4.2603C193.737 4.56933 193.59 5.01448 193.59 5.59574C193.59 6.177 193.733 6.62583 194.02 6.94221C194.314 7.25124 194.682 7.40575 195.124 7.40575Z" fill="#054646"/>
<path d="M190.882 8.6528H189.337L185.838 3.36624V8.6528H184.293V0.938175H185.838L189.337 6.23577V0.938175H190.882V8.6528Z" fill="#054646"/>
<path d="M178.746 3.48748C178.945 3.16374 179.202 2.90989 179.519 2.72595C179.842 2.54201 180.21 2.45003 180.622 2.45003V4.07242H180.214C179.728 4.07242 179.36 4.18647 179.11 4.41456C178.867 4.64265 178.746 5.03997 178.746 5.60652V8.65264H177.201V2.53833H178.746V3.48748Z" fill="#054646"/>
<path d="M176.073 5.4633C176.073 5.68403 176.058 5.88269 176.029 6.05928H171.559C171.596 6.50075 171.75 6.84656 172.023 7.09673C172.295 7.34689 172.63 7.47197 173.027 7.47197C173.601 7.47197 174.009 7.22549 174.252 6.73252H175.919C175.742 7.32114 175.404 7.80675 174.903 8.18936C174.403 8.5646 173.789 8.75223 173.06 8.75223C172.471 8.75223 171.942 8.62346 171.471 8.36594C171.007 8.10106 170.643 7.72949 170.378 7.25124C170.121 6.77298 169.992 6.22115 169.992 5.59574C169.992 4.96297 170.121 4.40746 170.378 3.9292C170.636 3.45095 170.996 3.08306 171.46 2.82554C171.923 2.56802 172.457 2.43925 173.06 2.43925C173.641 2.43925 174.16 2.56434 174.616 2.8145C175.08 3.06467 175.437 3.42152 175.687 3.88506C175.944 4.34124 176.073 4.86732 176.073 5.4633ZM174.473 5.02183C174.465 4.62451 174.322 4.30813 174.042 4.07268C173.763 3.82987 173.421 3.70847 173.016 3.70847C172.633 3.70847 172.31 3.8262 172.045 4.06164C171.787 4.28974 171.629 4.6098 171.57 5.02183H174.473Z" fill="#054646"/>
<path d="M167.909 3.8076V6.76542C167.909 6.97144 167.957 7.12227 168.053 7.21793C168.156 7.30622 168.325 7.35037 168.561 7.35037H169.278V8.65269H168.307C167.004 8.65269 166.353 8.01992 166.353 6.75439V3.8076H165.625V2.53838H166.353V1.02636H167.909V2.53838H169.278V3.8076H167.909Z" fill="#054646"/>
<path d="M162.436 8.75223C161.936 8.75223 161.487 8.66393 161.09 8.48735C160.692 8.3034 160.376 8.05692 160.14 7.74789C159.912 7.43886 159.787 7.09673 159.765 6.72148H161.321C161.351 6.95693 161.465 7.15191 161.663 7.30642C161.87 7.46094 162.123 7.53819 162.425 7.53819C162.719 7.53819 162.947 7.47933 163.109 7.36161C163.279 7.24388 163.363 7.09305 163.363 6.9091C163.363 6.71044 163.26 6.56329 163.054 6.46764C162.855 6.36463 162.535 6.25426 162.094 6.13654C161.638 6.02617 161.263 5.91212 160.968 5.7944C160.681 5.67668 160.431 5.49641 160.218 5.2536C160.012 5.0108 159.909 4.68338 159.909 4.27134C159.909 3.93288 160.004 3.62386 160.196 3.34426C160.394 3.06467 160.674 2.84393 161.034 2.68206C161.402 2.52019 161.833 2.43925 162.326 2.43925C163.054 2.43925 163.635 2.6232 164.069 2.99109C164.504 3.35162 164.743 3.84091 164.787 4.45896H163.308C163.286 4.21616 163.183 4.02486 162.999 3.88506C162.822 3.7379 162.583 3.66432 162.282 3.66432C162.002 3.66432 161.785 3.71583 161.63 3.81884C161.483 3.92185 161.41 4.06532 161.41 4.24927C161.41 4.45529 161.513 4.61348 161.719 4.72384C161.925 4.82685 162.245 4.93354 162.679 5.04391C163.12 5.15427 163.485 5.26832 163.771 5.38604C164.058 5.50377 164.305 5.68771 164.511 5.93788C164.724 6.18068 164.835 6.50443 164.842 6.9091C164.842 7.26228 164.743 7.57866 164.544 7.85826C164.353 8.13785 164.073 8.35858 163.705 8.52046C163.345 8.67497 162.922 8.75223 162.436 8.75223Z" fill="#054646"/>
<path d="M157.808 1.81001C157.536 1.81001 157.308 1.7254 157.124 1.55617C156.947 1.37958 156.859 1.16253 156.859 0.905007C156.859 0.647484 156.947 0.434109 157.124 0.26488C157.308 0.0882933 157.536 0 157.808 0C158.08 0 158.305 0.0882933 158.481 0.26488C158.665 0.434109 158.757 0.647484 158.757 0.905007C158.757 1.16253 158.665 1.37958 158.481 1.55617C158.305 1.7254 158.08 1.81001 157.808 1.81001ZM158.57 2.53843V8.65274H157.024V2.53843H158.57Z" fill="#054646"/>
<path d="M151.94 2.43925C152.396 2.43925 152.797 2.53123 153.143 2.71517C153.488 2.89176 153.761 3.12353 153.959 3.41048V2.53858H155.515V8.69704C155.515 9.26359 155.401 9.7676 155.173 10.2091C154.945 10.6579 154.603 11.0111 154.147 11.2686C153.691 11.5335 153.139 11.6659 152.491 11.6659C151.623 11.6659 150.909 11.4636 150.35 11.0589C149.798 10.6542 149.486 10.1024 149.412 9.40339H150.946C151.027 9.68298 151.2 9.90372 151.465 10.0656C151.737 10.2348 152.065 10.3194 152.447 10.3194C152.896 10.3194 153.26 10.1833 153.54 9.91107C153.819 9.64619 153.959 9.24152 153.959 8.69704V7.74789C153.761 8.03484 153.485 8.27397 153.132 8.46527C152.786 8.65657 152.388 8.75223 151.94 8.75223C151.425 8.75223 150.954 8.61979 150.527 8.35491C150.1 8.09003 149.762 7.71846 149.511 7.2402C149.269 6.75459 149.147 6.19908 149.147 5.57367C149.147 4.95561 149.269 4.40746 149.511 3.9292C149.762 3.45095 150.096 3.08306 150.516 2.82554C150.943 2.56802 151.417 2.43925 151.94 2.43925ZM153.959 5.59574C153.959 5.22049 153.886 4.90043 153.739 4.63555C153.591 4.36331 153.393 4.1573 153.143 4.0175C152.892 3.87034 152.624 3.79676 152.337 3.79676C152.05 3.79676 151.785 3.86666 151.542 4.00646C151.299 4.14626 151.101 4.35228 150.946 4.62451C150.799 4.88939 150.726 5.20578 150.726 5.57367C150.726 5.94156 150.799 6.2653 150.946 6.54489C151.101 6.81713 151.299 7.02683 151.542 7.17398C151.792 7.32114 152.057 7.39472 152.337 7.39472C152.624 7.39472 152.892 7.32482 153.143 7.18502C153.393 7.03786 153.591 6.83185 153.739 6.56697C153.886 6.29473 153.959 5.97099 153.959 5.59574Z" fill="#054646"/>
<path d="M148.417 5.4633C148.417 5.68403 148.402 5.88269 148.373 6.05928H143.903C143.94 6.50075 144.094 6.84656 144.366 7.09673C144.639 7.34689 144.973 7.47197 145.371 7.47197C145.945 7.47197 146.353 7.22549 146.596 6.73252H148.262C148.086 7.32114 147.747 7.80675 147.247 8.18936C146.747 8.5646 146.132 8.75223 145.404 8.75223C144.815 8.75223 144.285 8.62346 143.815 8.36594C143.351 8.10106 142.987 7.72949 142.722 7.25124C142.464 6.77298 142.336 6.22115 142.336 5.59574C142.336 4.96297 142.464 4.40746 142.722 3.9292C142.979 3.45095 143.34 3.08306 143.803 2.82554C144.267 2.56802 144.8 2.43925 145.404 2.43925C145.985 2.43925 146.504 2.56434 146.96 2.8145C147.423 3.06467 147.78 3.42152 148.031 3.88506C148.288 4.34124 148.417 4.86732 148.417 5.4633ZM146.816 5.02183C146.809 4.62451 146.666 4.30813 146.386 4.07268C146.106 3.82987 145.764 3.70847 145.36 3.70847C144.977 3.70847 144.653 3.8262 144.388 4.06164C144.131 4.28974 143.973 4.6098 143.914 5.02183H146.816Z" fill="#054646"/>
<path d="M139.636 8.65279L137.936 5.65081H137.208V8.65279H135.663V0.949198H138.554C139.15 0.949198 139.658 1.05589 140.077 1.26926C140.497 1.47528 140.809 1.75855 141.015 2.11908C141.229 2.47226 141.335 2.86958 141.335 3.31104C141.335 3.81873 141.188 4.27859 140.894 4.69063C140.6 5.0953 140.162 5.3749 139.581 5.52941L141.424 8.65279H139.636ZM137.208 4.49197H138.499C138.918 4.49197 139.231 4.39264 139.437 4.19398C139.643 3.98796 139.746 3.70468 139.746 3.34415C139.746 2.99098 139.643 2.71874 139.437 2.52744C139.231 2.32878 138.918 2.22945 138.499 2.22945H137.208V4.49197Z" fill="#054646"/>
<path d="M129.246 0.684402C130.011 0.684402 130.626 0.894099 131.089 1.31349C131.56 1.72553 131.796 2.29576 131.796 3.02417C131.796 3.74524 131.564 4.29707 131.1 4.67967C130.637 5.05492 130.022 5.24254 129.257 5.24254L129.213 6.09237H127.856L127.8 4.21613H128.297C128.937 4.21613 129.43 4.13152 129.776 3.96229C130.122 3.79306 130.295 3.48404 130.295 3.03521C130.295 2.71147 130.199 2.45395 130.008 2.26265C129.824 2.07134 129.57 1.97569 129.246 1.97569C128.908 1.97569 128.643 2.06766 128.452 2.25161C128.268 2.43555 128.176 2.6894 128.176 3.01314H126.719C126.711 2.56431 126.807 2.16332 127.006 1.81014C127.204 1.45697 127.495 1.18105 127.878 0.982393C128.268 0.783733 128.724 0.684402 129.246 0.684402ZM128.529 8.73013C128.249 8.73013 128.017 8.64551 127.834 8.47629C127.657 8.2997 127.569 8.08264 127.569 7.82512C127.569 7.5676 127.657 7.35422 127.834 7.185C128.017 7.00841 128.249 6.92012 128.529 6.92012C128.801 6.92012 129.025 7.00841 129.202 7.185C129.379 7.35422 129.467 7.5676 129.467 7.82512C129.467 8.08264 129.379 8.2997 129.202 8.47629C129.025 8.64551 128.801 8.73013 128.529 8.73013Z" fill="#054646"/>
<path d="M124.614 3.8076V6.76542C124.614 6.97144 124.662 7.12227 124.758 7.21793C124.861 7.30622 125.03 7.35037 125.265 7.35037H125.983V8.65269H125.011C123.709 8.65269 123.058 8.01992 123.058 6.75439V3.8076H122.33V2.53838H123.058V1.02636H124.614V2.53838H125.983V3.8076H124.614Z" fill="#054646"/>
<path d="M118.907 2.45003C119.635 2.45003 120.224 2.6818 120.673 3.14534C121.121 3.60152 121.346 4.24165 121.346 5.06572V8.65264H119.801V5.27542C119.801 4.7898 119.679 4.41824 119.436 4.16072C119.194 3.89584 118.863 3.7634 118.443 3.7634C118.016 3.7634 117.678 3.89584 117.428 4.16072C117.185 4.41824 117.064 4.7898 117.064 5.27542V8.65264H115.518V2.53833H117.064V3.29986C117.27 3.03498 117.531 2.82896 117.847 2.6818C118.171 2.52729 118.524 2.45003 118.907 2.45003Z" fill="#054646"/>
<path d="M113.994 2.53846V8.65277H112.438V7.88021C112.239 8.14508 111.978 8.35478 111.654 8.5093C111.338 8.65645 110.992 8.73003 110.617 8.73003C110.138 8.73003 109.715 8.6307 109.347 8.43204C108.98 8.22602 108.689 7.92803 108.476 7.53807C108.27 7.14075 108.167 6.66985 108.167 6.12538V2.53846H109.712V5.90464C109.712 6.39026 109.833 6.7655 110.076 7.03038C110.319 7.28791 110.65 7.41667 111.069 7.41667C111.496 7.41667 111.831 7.28791 112.074 7.03038C112.316 6.7655 112.438 6.39026 112.438 5.90464V2.53846H113.994Z" fill="#054646"/>
<path d="M103.899 8.75223C103.31 8.75223 102.78 8.62346 102.309 8.36594C101.839 8.10106 101.467 7.72949 101.195 7.25124C100.93 6.77298 100.797 6.22115 100.797 5.59574C100.797 4.97033 100.934 4.4185 101.206 3.94024C101.485 3.46199 101.864 3.0941 102.343 2.83658C102.821 2.5717 103.354 2.43925 103.943 2.43925C104.532 2.43925 105.065 2.5717 105.543 2.83658C106.021 3.0941 106.397 3.46199 106.669 3.94024C106.949 4.4185 107.088 4.97033 107.088 5.59574C107.088 6.22115 106.945 6.77298 106.658 7.25124C106.378 7.72949 105.996 8.10106 105.51 8.36594C105.032 8.62346 104.495 8.75223 103.899 8.75223ZM103.899 7.40575C104.178 7.40575 104.44 7.33953 104.682 7.20709C104.933 7.0673 105.131 6.86128 105.278 6.58904C105.426 6.3168 105.499 5.9857 105.499 5.59574C105.499 5.01448 105.345 4.56933 105.036 4.2603C104.734 3.94392 104.362 3.78573 103.921 3.78573C103.479 3.78573 103.108 3.94392 102.806 4.2603C102.512 4.56933 102.365 5.01448 102.365 5.59574C102.365 6.177 102.508 6.62583 102.795 6.94221C103.089 7.25124 103.457 7.40575 103.899 7.40575Z" fill="#054646"/>
<path d="M94.1472 5.59574C94.1472 4.96297 94.276 4.41114 94.5335 3.94024C94.791 3.46199 95.1479 3.0941 95.604 2.83658C96.0602 2.5717 96.5826 2.43925 97.1712 2.43925C97.9291 2.43925 98.5545 2.63056 99.0475 3.01316C99.5478 3.38841 99.8826 3.91817 100.052 4.60244H98.3853C98.297 4.33756 98.1462 4.13154 97.9328 3.98439C97.7268 3.82987 97.4692 3.75262 97.1602 3.75262C96.7187 3.75262 96.3693 3.91449 96.1117 4.23823C95.8542 4.55462 95.7254 5.00712 95.7254 5.59574C95.7254 6.177 95.8542 6.62951 96.1117 6.95325C96.3693 7.26963 96.7187 7.42783 97.1602 7.42783C97.7856 7.42783 98.194 7.14823 98.3853 6.58904H100.052C99.8826 7.25124 99.5478 7.77732 99.0475 8.16728C98.5472 8.55724 97.9217 8.75223 97.1712 8.75223C96.5826 8.75223 96.0602 8.62346 95.604 8.36594C95.1479 8.10106 94.791 7.73317 94.5335 7.26228C94.276 6.78402 94.1472 6.22851 94.1472 5.59574Z" fill="#054646"/>
<path d="M87.508 5.59574C87.508 4.96297 87.6367 4.41114 87.8942 3.94024C88.1518 3.46199 88.5086 3.0941 88.9648 2.83658C89.421 2.5717 89.9434 2.43925 90.532 2.43925C91.2899 2.43925 91.9153 2.63056 92.4082 3.01316C92.9086 3.38841 93.2433 3.91817 93.4126 4.60244H91.746C91.6577 4.33756 91.5069 4.13154 91.2935 3.98439C91.0875 3.82987 90.83 3.75262 90.521 3.75262C90.0795 3.75262 89.73 3.91449 89.4725 4.23823C89.215 4.55462 89.0862 5.00712 89.0862 5.59574C89.0862 6.177 89.215 6.62951 89.4725 6.95325C89.73 7.26963 90.0795 7.42783 90.521 7.42783C91.1464 7.42783 91.5547 7.14823 91.746 6.58904H93.4126C93.2433 7.25124 92.9086 7.77732 92.4082 8.16728C91.9079 8.55724 91.2825 8.75223 90.532 8.75223C89.9434 8.75223 89.421 8.62346 88.9648 8.36594C88.5086 8.10106 88.1518 7.73317 87.8942 7.26228C87.6367 6.78402 87.508 6.22851 87.508 5.59574Z" fill="#054646"/>
<path d="M80.028 5.57367C80.028 4.95561 80.1494 4.40746 80.3922 3.9292C80.6424 3.45095 80.9772 3.08306 81.3966 2.82554C81.8233 2.56802 82.2979 2.43925 82.8203 2.43925C83.2765 2.43925 83.6738 2.53123 84.0123 2.71517C84.3581 2.89912 84.634 3.13089 84.84 3.41048V2.53858H86.3962V8.6529H84.84V7.75893C84.6414 8.04588 84.3654 8.28501 84.0123 8.47631C83.6665 8.66025 83.2655 8.75223 82.8093 8.75223C82.2942 8.75223 81.8233 8.61979 81.3966 8.35491C80.9772 8.09003 80.6424 7.71846 80.3922 7.2402C80.1494 6.75459 80.028 6.19908 80.028 5.57367ZM84.84 5.59574C84.84 5.22049 84.7664 4.90043 84.6193 4.63555C84.4721 4.36331 84.2735 4.1573 84.0233 4.0175C83.7731 3.87034 83.5046 3.79676 83.2176 3.79676C82.9307 3.79676 82.6658 3.86666 82.423 4.00646C82.1802 4.14626 81.9815 4.35228 81.827 4.62451C81.6799 4.88939 81.6063 5.20578 81.6063 5.57367C81.6063 5.94156 81.6799 6.2653 81.827 6.54489C81.9815 6.81713 82.1802 7.02683 82.423 7.17398C82.6732 7.32114 82.938 7.39472 83.2176 7.39472C83.5046 7.39472 83.7731 7.32482 84.0233 7.18502C84.2735 7.03786 84.4721 6.83185 84.6193 6.56697C84.7664 6.29473 84.84 5.97099 84.84 5.59574Z" fill="#054646"/>
<path d="M73.8871 2.45003C74.6155 2.45003 75.2041 2.6818 75.6529 3.14534C76.1018 3.60152 76.3262 4.24165 76.3262 5.06572V8.65264H74.781V5.27542C74.781 4.7898 74.6596 4.41824 74.4168 4.16072C74.174 3.89584 73.8429 3.7634 73.4235 3.7634C72.9968 3.7634 72.6583 3.89584 72.4082 4.16072C72.1654 4.41824 72.044 4.7898 72.044 5.27542V8.65264H70.4988V2.53833H72.044V3.29986C72.25 3.03498 72.5112 2.82896 72.8276 2.6818C73.1513 2.52729 73.5045 2.45003 73.8871 2.45003Z" fill="#054646"/>
<path d="M62.6216 5.57367C62.6216 4.95561 62.743 4.40746 62.9858 3.9292C63.236 3.45095 63.5707 3.08306 63.9901 2.82554C64.4169 2.56802 64.8915 2.43925 65.4139 2.43925C65.87 2.43925 66.2674 2.53123 66.6058 2.71517C66.9516 2.89912 67.2275 3.13089 67.4336 3.41048V2.53858H68.9897V8.6529H67.4336V7.75893C67.2349 8.04588 66.959 8.28501 66.6058 8.47631C66.26 8.66025 65.859 8.75223 65.4028 8.75223C64.8878 8.75223 64.4169 8.61979 63.9901 8.35491C63.5707 8.09003 63.236 7.71846 62.9858 7.2402C62.743 6.75459 62.6216 6.19908 62.6216 5.57367ZM67.4336 5.59574C67.4336 5.22049 67.36 4.90043 67.2128 4.63555C67.0657 4.36331 66.867 4.1573 66.6169 4.0175C66.3667 3.87034 66.0981 3.79676 65.8112 3.79676C65.5242 3.79676 65.2593 3.86666 65.0165 4.00646C64.7737 4.14626 64.5751 4.35228 64.4206 4.62451C64.2734 4.88939 64.1998 5.20578 64.1998 5.57367C64.1998 5.94156 64.2734 6.2653 64.4206 6.54489C64.5751 6.81713 64.7737 7.02683 65.0165 7.17398C65.2667 7.32114 65.5316 7.39472 65.8112 7.39472C66.0981 7.39472 66.3667 7.32482 66.6169 7.18502C66.867 7.03786 67.0657 6.83185 67.2128 6.56697C67.36 6.29473 67.4336 5.97099 67.4336 5.59574Z" fill="#054646"/>
<path d="M59.2613 5.4633C59.2613 5.68403 59.2466 5.88269 59.2171 6.05928H54.7473C54.7841 6.50075 54.9386 6.84656 55.2108 7.09673C55.4831 7.34689 55.8178 7.47197 56.2152 7.47197C56.7891 7.47197 57.1974 7.22549 57.4402 6.73252H59.1068C58.9302 7.32114 58.5917 7.80675 58.0914 8.18936C57.5911 8.5646 56.9767 8.75223 56.2483 8.75223C55.6596 8.75223 55.1299 8.62346 54.659 8.36594C54.1954 8.10106 53.8312 7.72949 53.5664 7.25124C53.3088 6.77298 53.1801 6.22115 53.1801 5.59574C53.1801 4.96297 53.3088 4.40746 53.5664 3.9292C53.8239 3.45095 54.1844 3.08306 54.6479 2.82554C55.1115 2.56802 55.6449 2.43925 56.2483 2.43925C56.8295 2.43925 57.3482 2.56434 57.8044 2.8145C58.268 3.06467 58.6248 3.42152 58.875 3.88506C59.1325 4.34124 59.2613 4.86732 59.2613 5.4633ZM57.661 5.02183C57.6536 4.62451 57.5101 4.30813 57.2305 4.07268C56.9509 3.82987 56.6088 3.70847 56.2041 3.70847C55.8215 3.70847 55.4978 3.8262 55.2329 4.06164C54.9754 4.28974 54.8172 4.6098 54.7583 5.02183H57.661Z" fill="#054646"/>
<path d="M49.5199 7.22904L51.065 2.53846H52.7095L50.447 8.65277H48.5707L46.3193 2.53846H47.9748L49.5199 7.22904Z" fill="#054646"/>
<path d="M39.0932 5.57367C39.0932 4.95561 39.2146 4.40746 39.4574 3.9292C39.7076 3.45095 40.0424 3.08306 40.4618 2.82554C40.8885 2.56802 41.3631 2.43925 41.8855 2.43925C42.3417 2.43925 42.739 2.53123 43.0775 2.71517C43.4233 2.89912 43.6992 3.13089 43.9052 3.41048V2.53858H45.4614V8.6529H43.9052V7.75893C43.7066 8.04588 43.4306 8.28501 43.0775 8.47631C42.7317 8.66025 42.3307 8.75223 41.8745 8.75223C41.3594 8.75223 40.8885 8.61979 40.4618 8.35491C40.0424 8.09003 39.7076 7.71846 39.4574 7.2402C39.2146 6.75459 39.0932 6.19908 39.0932 5.57367ZM43.9052 5.59574C43.9052 5.22049 43.8316 4.90043 43.6845 4.63555C43.5373 4.36331 43.3387 4.1573 43.0885 4.0175C42.8383 3.87034 42.5698 3.79676 42.2828 3.79676C41.9959 3.79676 41.731 3.86666 41.4882 4.00646C41.2454 4.14626 41.0467 4.35228 40.8922 4.62451C40.7451 4.88939 40.6715 5.20578 40.6715 5.57367C40.6715 5.94156 40.7451 6.2653 40.8922 6.54489C41.0467 6.81713 41.2454 7.02683 41.4882 7.17398C41.7384 7.32114 42.0032 7.39472 42.2828 7.39472C42.5698 7.39472 42.8383 7.32482 43.0885 7.18502C43.3387 7.03786 43.5373 6.83185 43.6845 6.56697C43.8316 6.29473 43.9052 5.97099 43.9052 5.59574Z" fill="#054646"/>
<path d="M35.6373 2.45003C36.1008 2.45003 36.5129 2.55303 36.8734 2.75905C37.2339 2.95771 37.5135 3.2557 37.7122 3.65302C37.9182 4.04298 38.0212 4.51388 38.0212 5.06571V8.65263H36.4761V5.27541C36.4761 4.7898 36.3547 4.41823 36.1119 4.16071C35.8691 3.89583 35.538 3.76339 35.1186 3.76339C34.6918 3.76339 34.3534 3.89583 34.1032 4.16071C33.8604 4.41823 33.739 4.7898 33.739 5.27541V8.65263H32.1939V0.485499H33.739V3.29985C33.9376 3.03497 34.2025 2.82895 34.5336 2.6818C34.8647 2.52728 35.2326 2.45003 35.6373 2.45003Z" fill="#054646"/>
<path d="M27.0841 3.8076V6.76542C27.0841 6.97144 27.132 7.12227 27.2276 7.21793C27.3306 7.30622 27.4998 7.35037 27.7353 7.35037H28.4527V8.65269H27.4814C26.1791 8.65269 25.528 8.01992 25.528 6.75439V3.8076H24.7995V2.53838H25.528V1.02636H27.0841V2.53838H28.4527V3.8076H27.0841Z" fill="#054646"/>
<path d="M22.5548 0.949198H24.1772L22.9853 3.73044H21.9257L22.5548 0.949198Z" fill="#054646"/>
<path d="M18.3373 2.45003C19.0657 2.45003 19.6544 2.6818 20.1032 3.14534C20.552 3.60152 20.7764 4.24165 20.7764 5.06572V8.65264H19.2313V5.27542C19.2313 4.7898 19.1099 4.41824 18.8671 4.16072C18.6243 3.89584 18.2932 3.7634 17.8738 3.7634C17.447 3.7634 17.1086 3.89584 16.8584 4.16072C16.6156 4.41824 16.4942 4.7898 16.4942 5.27542V8.65264H14.9491V2.53833H16.4942V3.29986C16.7002 3.03498 16.9614 2.82896 17.2778 2.6818C17.6016 2.52729 17.9547 2.45003 18.3373 2.45003Z" fill="#054646"/>
<path d="M10.6261 8.75223C10.0374 8.75223 9.50767 8.62346 9.03677 8.36594C8.56588 8.10106 8.19431 7.72949 7.92207 7.25124C7.65719 6.77298 7.52475 6.22115 7.52475 5.59574C7.52475 4.97033 7.66087 4.4185 7.93311 3.94024C8.2127 3.46199 8.59163 3.0941 9.06988 2.83658C9.54814 2.5717 10.0816 2.43925 10.6702 2.43925C11.2588 2.43925 11.7923 2.5717 12.2705 2.83658C12.7488 3.0941 13.124 3.46199 13.3963 3.94024C13.6759 4.4185 13.8156 4.97033 13.8156 5.59574C13.8156 6.22115 13.6722 6.77298 13.3852 7.25124C13.1056 7.72949 12.723 8.10106 12.2374 8.36594C11.7591 8.62346 11.222 8.75223 10.6261 8.75223ZM10.6261 7.40575C10.9056 7.40575 11.1668 7.33953 11.4097 7.20709C11.6598 7.0673 11.8585 6.86128 12.0056 6.58904C12.1528 6.3168 12.2264 5.9857 12.2264 5.59574C12.2264 5.01448 12.0719 4.56933 11.7628 4.2603C11.4612 3.94392 11.0896 3.78573 10.6481 3.78573C10.2067 3.78573 9.83509 3.94392 9.53342 4.2603C9.23911 4.56933 9.09196 5.01448 9.09196 5.59574C9.09196 6.177 9.23543 6.62583 9.52239 6.94221C9.8167 7.25124 10.1846 7.40575 10.6261 7.40575Z" fill="#054646"/>
<path d="M2.69295 0.949198C3.5023 0.949198 4.21233 1.10739 4.82302 1.42377C5.44108 1.74016 5.91565 2.19266 6.24675 2.78128C6.58521 3.36255 6.75444 4.03946 6.75444 4.81203C6.75444 5.5846 6.58521 6.26151 6.24675 6.84277C5.91565 7.41668 5.44108 7.86183 4.82302 8.17821C4.21233 8.4946 3.5023 8.65279 2.69295 8.65279H0V0.949198H2.69295ZM2.63776 7.33942C3.44712 7.33942 4.07253 7.11869 4.51399 6.67722C4.95546 6.23576 5.17619 5.61403 5.17619 4.81203C5.17619 4.01003 4.95546 3.38462 4.51399 2.9358C4.07253 2.47961 3.44712 2.25152 2.63776 2.25152H1.54513V7.33942H2.63776Z" fill="#054646"/>
</svg>
