<svg width="100" height="12" viewBox="0 0 100 12" fill="none" xmlns="http://www.w3.org/2000/svg">
<path d="M0 9.27104H100V9.82289H0V9.27104Z" fill="#054646"/>
<path d="M96.976 0.198663C97.7412 0.198663 98.3556 0.408366 98.8191 0.827772C99.29 1.23982 99.5255 1.81006 99.5255 2.5385C99.5255 3.25958 99.2937 3.81143 98.8302 4.19405C98.3666 4.5693 97.7522 4.75693 96.987 4.75693L96.9428 5.60678H95.5853L95.5301 3.73049H96.0268C96.6669 3.73049 97.1599 3.64588 97.5057 3.47664C97.8516 3.30741 98.0245 2.99838 98.0245 2.54954C98.0245 2.22579 97.9288 1.96826 97.7375 1.77695C97.5535 1.58564 97.2997 1.48999 96.976 1.48999C96.6375 1.48999 96.3726 1.58196 96.1813 1.76591C95.9973 1.94986 95.9054 2.20371 95.9054 2.52746H94.4485C94.4411 2.07863 94.5368 1.67762 94.7354 1.32444C94.9341 0.971252 95.2247 0.695328 95.6074 0.496662C95.9973 0.297997 96.4535 0.198663 96.976 0.198663ZM96.2585 8.24462C95.9789 8.24462 95.7472 8.16 95.5632 7.99077C95.3866 7.81417 95.2983 7.59711 95.2983 7.33958C95.2983 7.08205 95.3866 6.86867 95.5632 6.69944C95.7472 6.52285 95.9789 6.43455 96.2585 6.43455C96.5308 6.43455 96.7552 6.52285 96.9318 6.69944C97.1084 6.86867 97.1967 7.08205 97.1967 7.33958C97.1967 7.59711 97.1084 7.81417 96.9318 7.99077C96.7552 8.16 96.5308 8.24462 96.2585 8.24462Z" fill="#054646"/>
<path d="M86.9463 5.08804C86.9463 4.46997 87.0677 3.9218 87.3105 3.44353C87.5607 2.96527 87.8991 2.59737 88.3259 2.33984C88.7526 2.08231 89.2272 1.95354 89.7497 1.95354C90.147 1.95354 90.5259 2.04184 90.8865 2.21843C91.247 2.38766 91.534 2.61576 91.7473 2.90272V0H93.3146V8.16736H91.7473V7.26233C91.556 7.564 91.2875 7.80682 90.9417 7.99077C90.5958 8.17472 90.1948 8.26669 89.7386 8.26669C89.2236 8.26669 88.7526 8.13425 88.3259 7.86936C87.8991 7.60447 87.5607 7.23289 87.3105 6.75463C87.0677 6.269 86.9463 5.71347 86.9463 5.08804ZM91.7584 5.11012C91.7584 4.73486 91.6848 4.41479 91.5376 4.1499C91.3905 3.87766 91.1918 3.67163 90.9417 3.53183C90.6915 3.38467 90.4229 3.31109 90.136 3.31109C89.849 3.31109 89.5841 3.38099 89.3413 3.52079C89.0985 3.66059 88.8998 3.86662 88.7453 4.13886C88.5981 4.40375 88.5246 4.72014 88.5246 5.08804C88.5246 5.45594 88.5981 5.77969 88.7453 6.0593C88.8998 6.33154 89.0985 6.54124 89.3413 6.6884C89.5915 6.83556 89.8564 6.90914 90.136 6.90914C90.4229 6.90914 90.6915 6.83924 90.9417 6.69944C91.1918 6.55228 91.3905 6.34626 91.5376 6.08137C91.6848 5.80912 91.7584 5.48537 91.7584 5.11012Z" fill="#054646"/>
<path d="M84.4266 3.00206C84.6252 2.67831 84.8827 2.42446 85.1991 2.24051C85.5229 2.05656 85.8908 1.96459 86.3028 1.96459V3.58702H85.8945C85.4088 3.58702 85.0409 3.70107 84.7908 3.92917C84.548 4.15727 84.4266 4.5546 84.4266 5.12116V8.16737H82.8814V2.05288H84.4266V3.00206Z" fill="#054646"/>
<path d="M78.5582 8.26671C77.9696 8.26671 77.4398 8.13795 76.9689 7.88042C76.498 7.61553 76.1264 7.24395 75.8542 6.76568C75.5893 6.28742 75.4569 5.73557 75.4569 5.11014C75.4569 4.48471 75.593 3.93286 75.8652 3.45459C76.1448 2.97632 76.5238 2.60843 77.002 2.3509C77.4803 2.08601 78.0138 1.95357 78.6024 1.95357C79.191 1.95357 79.7245 2.08601 80.2028 2.3509C80.681 2.60843 81.0563 2.97632 81.3285 3.45459C81.6081 3.93286 81.7479 4.48471 81.7479 5.11014C81.7479 5.73557 81.6044 6.28742 81.3175 6.76568C81.0379 7.24395 80.6553 7.61553 80.1696 7.88042C79.6914 8.13795 79.1542 8.26671 78.5582 8.26671ZM78.5582 6.9202C78.8378 6.9202 79.0991 6.85398 79.3419 6.72154C79.592 6.58173 79.7907 6.37571 79.9379 6.10347C80.085 5.83122 80.1586 5.50011 80.1586 5.11014C80.1586 4.52886 80.0041 4.0837 79.695 3.77467C79.3934 3.45827 79.0218 3.30008 78.5803 3.30008C78.1388 3.30008 77.7673 3.45827 77.4656 3.77467C77.1713 4.0837 77.0241 4.52886 77.0241 5.11014C77.0241 5.69142 77.1676 6.14026 77.4545 6.45665C77.7489 6.76568 78.1168 6.9202 78.5582 6.9202Z" fill="#054646"/>
<path d="M75.0071 2.05277L73.2191 8.16726H71.5525L70.4378 3.89595L69.3231 8.16726H67.6454L65.8464 2.05277H67.4137L68.4953 6.71038L69.6652 2.05277H71.2987L72.4465 6.69934L73.5281 2.05277H75.0071Z" fill="#054646"/>
<path d="M62.8562 8.26671C62.3558 8.26671 61.907 8.17842 61.5097 8.00182C61.1123 7.81788 60.796 7.57138 60.5605 7.26235C60.3324 6.95331 60.2073 6.61117 60.1852 6.23591H61.7415C61.7709 6.47136 61.8849 6.66635 62.0836 6.82087C62.2896 6.97539 62.5435 7.05265 62.8452 7.05265C63.1395 7.05265 63.3676 6.99378 63.5294 6.87605C63.6987 6.75833 63.7833 6.60749 63.7833 6.42354C63.7833 6.22487 63.6803 6.07771 63.4743 5.98206C63.2756 5.87905 62.9555 5.76868 62.514 5.65095C62.0578 5.54058 61.6826 5.42653 61.3883 5.3088C61.1013 5.19108 60.8511 5.01081 60.6378 4.76799C60.4317 4.52518 60.3287 4.19775 60.3287 3.7857C60.3287 3.44724 60.4244 3.1382 60.6157 2.8586C60.8143 2.57899 61.0939 2.35825 61.4545 2.19638C61.8224 2.0345 62.2528 1.95357 62.7458 1.95357C63.4743 1.95357 64.0555 2.13751 64.4897 2.50541C64.9238 2.86595 65.1629 3.35526 65.2071 3.97333H63.7281C63.706 3.73052 63.603 3.53921 63.4191 3.39941C63.2425 3.25225 63.0033 3.17867 62.7017 3.17867C62.4221 3.17867 62.205 3.23017 62.0505 3.33319C61.9033 3.4362 61.8297 3.57968 61.8297 3.76363C61.8297 3.96965 61.9328 4.12785 62.1388 4.23822C62.3448 4.34123 62.6649 4.44792 63.099 4.55829C63.5405 4.66866 63.9047 4.78271 64.1917 4.90044C64.4786 5.01816 64.7251 5.20211 64.9311 5.45228C65.1445 5.6951 65.2549 6.01885 65.2622 6.42354C65.2622 6.77672 65.1629 7.09311 64.9642 7.37272C64.7729 7.65232 64.4933 7.87306 64.1254 8.03494C63.7649 8.18945 63.3418 8.26671 62.8562 8.26671Z" fill="#054646"/>
<path d="M56.8419 8.26671C56.3416 8.26671 55.8927 8.17842 55.4954 8.00182C55.0981 7.81788 54.7817 7.57138 54.5462 7.26235C54.3181 6.95331 54.193 6.61117 54.171 6.23591H55.7272C55.7566 6.47136 55.8706 6.66635 56.0693 6.82087C56.2753 6.97539 56.5292 7.05265 56.8309 7.05265C57.1252 7.05265 57.3533 6.99378 57.5152 6.87605C57.6844 6.75833 57.769 6.60749 57.769 6.42354C57.769 6.22487 57.666 6.07771 57.46 5.98206C57.2613 5.87905 56.9412 5.76868 56.4998 5.65095C56.0436 5.54058 55.6683 5.42653 55.374 5.3088C55.087 5.19108 54.8368 5.01081 54.6235 4.76799C54.4174 4.52518 54.3144 4.19775 54.3144 3.7857C54.3144 3.44724 54.4101 3.1382 54.6014 2.8586C54.8001 2.57899 55.0797 2.35825 55.4402 2.19638C55.8081 2.0345 56.2385 1.95357 56.7315 1.95357C57.46 1.95357 58.0413 2.13751 58.4754 2.50541C58.9095 2.86595 59.1486 3.35526 59.1928 3.97333H57.7138C57.6917 3.73052 57.5887 3.53921 57.4048 3.39941C57.2282 3.25225 56.9891 3.17867 56.6874 3.17867C56.4078 3.17867 56.1907 3.23017 56.0362 3.33319C55.889 3.4362 55.8155 3.57968 55.8155 3.76363C55.8155 3.96965 55.9185 4.12785 56.1245 4.23822C56.3305 4.34123 56.6506 4.44792 57.0847 4.55829C57.5262 4.66866 57.8904 4.78271 58.1774 4.90044C58.4643 5.01816 58.7108 5.20211 58.9168 5.45228C59.1302 5.6951 59.2406 6.01885 59.248 6.42354C59.248 6.77672 59.1486 7.09311 58.95 7.37272C58.7587 7.65232 58.4791 7.87306 58.1112 8.03494C57.7506 8.18945 57.3275 8.26671 56.8419 8.26671Z" fill="#054646"/>
<path d="M46.6247 5.08806C46.6247 4.46999 46.7461 3.92183 46.9889 3.44356C47.2391 2.96529 47.5739 2.59739 47.9933 2.33986C48.42 2.08233 48.8946 1.95357 49.417 1.95357C49.8732 1.95357 50.2706 2.04554 50.609 2.22949C50.9549 2.41344 51.2308 2.64522 51.4368 2.92482V2.0529H52.993V8.16738H51.4368V7.27339C51.2381 7.56035 50.9622 7.79948 50.609 7.99079C50.2632 8.17474 49.8622 8.26671 49.406 8.26671C48.8909 8.26671 48.42 8.13427 47.9933 7.86938C47.5739 7.60449 47.2391 7.23292 46.9889 6.75465C46.7461 6.26902 46.6247 5.71349 46.6247 5.08806ZM51.4368 5.11014C51.4368 4.73488 51.3632 4.41481 51.2161 4.14992C51.0689 3.87768 50.8702 3.67165 50.6201 3.53185C50.3699 3.38469 50.1013 3.31111 49.8144 3.31111C49.5274 3.31111 49.2625 3.38101 49.0197 3.52081C48.7769 3.66062 48.5782 3.86664 48.4237 4.13889C48.2765 4.40377 48.203 4.72017 48.203 5.08806C48.203 5.45596 48.2765 5.77972 48.4237 6.05932C48.5782 6.33156 48.7769 6.54127 49.0197 6.68843C49.2699 6.83558 49.5348 6.90917 49.8144 6.90917C50.1013 6.90917 50.3699 6.83926 50.6201 6.69946C50.8702 6.5523 51.0689 6.34628 51.2161 6.08139C51.3632 5.80915 51.4368 5.4854 51.4368 5.11014Z" fill="#054646"/>
<path d="M41.0871 2.93586C41.2857 2.65625 41.558 2.42448 41.9038 2.24053C42.257 2.04922 42.658 1.95357 43.1068 1.95357C43.6292 1.95357 44.1001 2.08233 44.5195 2.33986C44.9463 2.59739 45.2811 2.96529 45.5239 3.44356C45.7741 3.91447 45.8992 4.46264 45.8992 5.08806C45.8992 5.71349 45.7741 6.26902 45.5239 6.75465C45.2811 7.23292 44.9463 7.60449 44.5195 7.86938C44.1001 8.13427 43.6292 8.26671 43.1068 8.26671C42.658 8.26671 42.2606 8.17474 41.9148 7.99079C41.5764 7.80684 41.3004 7.57506 41.0871 7.29546V11.0811H39.5419V2.0529H41.0871V2.93586ZM44.3209 5.08806C44.3209 4.72017 44.2436 4.40377 44.0891 4.13889C43.9419 3.86664 43.7433 3.66062 43.4931 3.52081C43.2503 3.38101 42.9854 3.31111 42.6984 3.31111C42.4188 3.31111 42.154 3.38469 41.9038 3.53185C41.661 3.67165 41.4623 3.87768 41.3078 4.14992C41.1606 4.42217 41.0871 4.74224 41.0871 5.11014C41.0871 5.47804 41.1606 5.79811 41.3078 6.07035C41.4623 6.3426 41.661 6.5523 41.9038 6.69946C42.154 6.83926 42.4188 6.90917 42.6984 6.90917C42.9854 6.90917 43.2503 6.83558 43.4931 6.68843C43.7433 6.54127 43.9419 6.33156 44.0891 6.05932C44.2436 5.78707 44.3209 5.46332 44.3209 5.08806Z" fill="#054646"/>
<path d="M34.432 3.32219V6.2801C34.432 6.48612 34.4798 6.63696 34.5755 6.73261C34.6785 6.82091 34.8477 6.86506 35.0832 6.86506H35.8006V8.16742H34.8293C33.527 8.16742 32.8758 7.53463 32.8758 6.26906V3.32219H32.1474V2.05294H32.8758V0.540874H34.432V2.05294H35.8006V3.32219H34.432Z" fill="#054646"/>
<path d="M28.3099 8.26671C27.7212 8.26671 27.1914 8.13795 26.7205 7.88042C26.2496 7.61553 25.878 7.24395 25.6058 6.76568C25.3409 6.28742 25.2085 5.73557 25.2085 5.11014C25.2085 4.48471 25.3446 3.93286 25.6168 3.45459C25.8964 2.97632 26.2754 2.60843 26.7536 2.3509C27.2319 2.08601 27.7654 1.95357 28.354 1.95357C28.9426 1.95357 29.4761 2.08601 29.9544 2.3509C30.4326 2.60843 30.8079 2.97632 31.0801 3.45459C31.3597 3.93286 31.4995 4.48471 31.4995 5.11014C31.4995 5.73557 31.356 6.28742 31.0691 6.76568C30.7895 7.24395 30.4069 7.61553 29.9212 7.88042C29.443 8.13795 28.9059 8.26671 28.3099 8.26671ZM28.3099 6.9202C28.5895 6.9202 28.8507 6.85398 29.0935 6.72154C29.3436 6.58173 29.5423 6.37571 29.6895 6.10347C29.8366 5.83122 29.9102 5.50011 29.9102 5.11014C29.9102 4.52886 29.7557 4.0837 29.4467 3.77467C29.145 3.45827 28.7734 3.30008 28.3319 3.30008C27.8904 3.30008 27.5189 3.45827 27.2172 3.77467C26.9229 4.0837 26.7757 4.52886 26.7757 5.11014C26.7757 5.69142 26.9192 6.14026 27.2062 6.45665C27.5005 6.76568 27.8684 6.9202 28.3099 6.9202Z" fill="#054646"/>
<path d="M20.5097 1.95357C20.9659 1.95357 21.3669 2.04554 21.7127 2.22949C22.0585 2.40608 22.3308 2.63786 22.5294 2.92482V2.0529H24.0856V8.21153C24.0856 8.77809 23.9716 9.28211 23.7435 9.72359C23.5154 10.1724 23.1732 10.5256 22.7171 10.7831C22.2609 11.048 21.709 11.1805 21.0615 11.1805C20.1933 11.1805 19.4795 10.9781 18.9203 10.5734C18.3685 10.1687 18.0558 9.6169 17.9822 8.91789H19.5163C19.5973 9.1975 19.7702 9.41824 20.0351 9.58011C20.3073 9.74935 20.6347 9.83396 21.0174 9.83396C21.4662 9.83396 21.8304 9.69784 22.11 9.42559C22.3896 9.16071 22.5294 8.75602 22.5294 8.21153V7.26235C22.3308 7.54931 22.0548 7.78844 21.7017 7.97975C21.3558 8.17106 20.9585 8.26671 20.5097 8.26671C19.9946 8.26671 19.5237 8.13427 19.0969 7.86938C18.6702 7.60449 18.3317 7.23292 18.0815 6.75465C17.8387 6.26902 17.7173 5.71349 17.7173 5.08806C17.7173 4.46999 17.8387 3.92183 18.0815 3.44356C18.3317 2.96529 18.6665 2.59739 19.0859 2.33986C19.5127 2.08233 19.9872 1.95357 20.5097 1.95357ZM22.5294 5.11014C22.5294 4.73488 22.4558 4.41481 22.3087 4.14992C22.1615 3.87768 21.9629 3.67165 21.7127 3.53185C21.4625 3.38469 21.194 3.31111 20.907 3.31111C20.62 3.31111 20.3551 3.38101 20.1123 3.52081C19.8695 3.66062 19.6708 3.86664 19.5163 4.13889C19.3692 4.40377 19.2956 4.72017 19.2956 5.08806C19.2956 5.45596 19.3692 5.77972 19.5163 6.05932C19.6708 6.33156 19.8695 6.54127 20.1123 6.68843C20.3625 6.83558 20.6274 6.90917 20.907 6.90917C21.194 6.90917 21.4625 6.83926 21.7127 6.69946C21.9629 6.5523 22.1615 6.34628 22.3087 6.08139C22.4558 5.80915 22.5294 5.4854 22.5294 5.11014Z" fill="#054646"/>
<path d="M15.1976 3.00206C15.3963 2.67831 15.6538 2.42446 15.9702 2.24051C16.2939 2.05656 16.6618 1.96459 17.0739 1.96459V3.58702H16.6655C16.1799 3.58702 15.812 3.70107 15.5618 3.92917C15.319 4.15727 15.1976 4.5546 15.1976 5.12116V8.16737H13.6524V2.05288H15.1976V3.00206Z" fill="#054646"/>
<path d="M9.32928 8.26671C8.74064 8.26671 8.21087 8.13795 7.73996 7.88042C7.26905 7.61553 6.89747 7.24395 6.62522 6.76568C6.36034 6.28742 6.22789 5.73557 6.22789 5.11014C6.22789 4.48471 6.36401 3.93286 6.63626 3.45459C6.91586 2.97632 7.2948 2.60843 7.77307 2.3509C8.25134 2.08601 8.78479 1.95357 9.37343 1.95357C9.96207 1.95357 10.4955 2.08601 10.9738 2.3509C11.4521 2.60843 11.8273 2.97632 12.0996 3.45459C12.3792 3.93286 12.519 4.48471 12.519 5.11014C12.519 5.73557 12.3755 6.28742 12.0885 6.76568C11.8089 7.24395 11.4263 7.61553 10.9407 7.88042C10.4624 8.13795 9.92528 8.26671 9.32928 8.26671ZM9.32928 6.9202C9.60888 6.9202 9.87009 6.85398 10.1129 6.72154C10.3631 6.58173 10.5617 6.37571 10.7089 6.10347C10.8561 5.83122 10.9296 5.50011 10.9296 5.11014C10.9296 4.52886 10.7751 4.0837 10.4661 3.77467C10.1644 3.45827 9.79283 3.30008 9.35135 3.30008C8.90987 3.30008 8.5383 3.45827 8.23662 3.77467C7.9423 4.0837 7.79514 4.52886 7.79514 5.11014C7.79514 5.69142 7.93862 6.14026 8.22558 6.45665C8.5199 6.76568 8.8878 6.9202 9.32928 6.9202Z" fill="#054646"/>
<path d="M5.51852 0.463466V1.71064H2.30676V3.68626H4.768V4.91137H2.30676V8.16727H0.761584V0.463466H5.51852Z" fill="#054646"/>
</svg>
