<svg width="33" height="34" viewBox="0 0 33 34" fill="none" xmlns="http://www.w3.org/2000/svg">
<g clip-path="url(#clip0_19_373)">
<path d="M5.52749 16.3115L18.9131 2.49045C20.4651 0.924816 22.5538 0.0529513 24.7258 0.0640699C26.8979 0.0751885 28.978 0.968393 30.5149 2.54984C32.0517 4.13129 32.9212 6.27337 32.9347 8.51122C32.9482 10.7491 32.1045 12.9021 30.5869 14.5031L27.5406 17.7522L17.2157 28.39L14.0745 31.518C12.5206 33.0816 10.4309 33.9508 8.25886 33.9369C6.08683 33.923 4.00775 33.0272 2.47282 31.4438C0.937886 29.8604 0.0709522 27.7172 0.0601606 25.4793C0.0493689 23.2415 0.89559 21.0895 2.41518 19.4905L2.41724 19.4862L5.5213 16.3157L5.52337 16.3115H5.52749ZM17.3044 10.2382C17.2086 10.1394 17.0949 10.061 16.9698 10.0075C16.8446 9.95399 16.7105 9.9264 16.575 9.9263C16.4395 9.9262 16.3053 9.9536 16.1801 10.0069C16.0548 10.0603 15.941 10.1385 15.8451 10.2371C15.7493 10.3358 15.6732 10.4529 15.6212 10.5819C15.5693 10.7108 15.5425 10.849 15.5424 10.9886C15.5423 11.1282 15.5689 11.2665 15.6207 11.3955C15.6724 11.5245 15.7484 11.6418 15.8441 11.7406C16.0386 11.9341 16.2991 12.0412 16.5695 12.0388C16.8399 12.0364 17.0985 11.9246 17.2897 11.7276C17.4809 11.5306 17.5894 11.2641 17.5917 10.9856C17.5941 10.707 17.4902 10.4386 17.3023 10.2382H17.3044ZM14.3839 14.7453C14.4824 14.6473 14.5609 14.5301 14.615 14.4004C14.669 14.2708 14.6975 14.1314 14.6987 13.9903C14.6998 13.8492 14.6738 13.7093 14.6219 13.5788C14.57 13.4482 14.4935 13.3295 14.3966 13.2298C14.2998 13.13 14.1847 13.0511 14.0579 12.9977C13.9312 12.9443 13.7954 12.9174 13.6585 12.9186C13.5216 12.9198 13.3862 12.9492 13.2604 13.0048C13.1346 13.0605 13.0208 13.1415 12.9257 13.243C12.7378 13.4433 12.6339 13.7117 12.6362 13.9903C12.6386 14.2689 12.747 14.5354 12.9382 14.7324C13.1294 14.9294 13.3881 15.0411 13.6585 15.0435C13.9289 15.046 14.1894 14.9389 14.3839 14.7453ZM11.4675 17.7522C11.6611 17.553 11.77 17.2827 11.7702 17.0007C11.7704 16.7188 11.6619 16.4483 11.4685 16.2488C11.2752 16.0493 11.0128 15.9371 10.7391 15.9369C10.4655 15.9367 10.2029 16.0485 10.0093 16.2477C9.91342 16.3463 9.83734 16.4635 9.7854 16.5924C9.73345 16.7214 9.70667 16.8596 9.70657 16.9992C9.70638 17.2812 9.8149 17.5516 10.0083 17.7511C10.2016 17.9506 10.464 18.0628 10.7377 18.063C11.0113 18.0632 11.2738 17.9514 11.4675 17.7522ZM17.3002 23.7617C17.3987 23.6637 17.4773 23.5464 17.5313 23.4168C17.5854 23.2872 17.6138 23.1478 17.615 23.0067C17.6162 22.8656 17.5901 22.7257 17.5383 22.5951C17.4864 22.4646 17.4099 22.3459 17.313 22.2462C17.2162 22.1464 17.1011 22.0675 16.9743 22.0141C16.8476 21.9607 16.7118 21.9338 16.5749 21.935C16.4379 21.9362 16.3026 21.9655 16.1768 22.0212C16.051 22.0769 15.9372 22.1578 15.8421 22.2593C15.6542 22.4597 15.5503 22.7281 15.5526 23.0067C15.555 23.2853 15.6634 23.5518 15.8546 23.7488C16.0458 23.9458 16.3045 24.0575 16.5749 24.0599C16.8453 24.0623 17.1057 23.9552 17.3002 23.7617ZM20.2166 19.2546C20.1215 19.1531 20.0077 19.0722 19.8819 19.0165C19.7561 18.9608 19.6207 18.9315 19.4838 18.9302C19.3469 18.929 19.2111 18.9559 19.0844 19.0093C18.9576 19.0628 18.8425 19.1416 18.7456 19.2414C18.6488 19.3412 18.5722 19.4598 18.5204 19.5904C18.4685 19.721 18.4425 19.8609 18.4436 20.0019C18.4448 20.143 18.4733 20.2824 18.5273 20.4121C18.5814 20.5417 18.6599 20.6589 18.7584 20.757C18.9529 20.9505 19.2134 21.0576 19.4838 21.0552C19.7542 21.0527 20.0129 20.941 20.2041 20.744C20.3953 20.547 20.5037 20.2805 20.5061 20.0019C20.5084 19.7234 20.4045 19.455 20.2166 19.2546ZM23.133 17.7522C23.2316 17.6543 23.3103 17.5372 23.3645 17.4077C23.4188 17.2781 23.4474 17.1387 23.4488 16.9977C23.4502 16.8566 23.4243 16.7167 23.3726 16.586C23.3209 16.4554 23.2445 16.3366 23.1478 16.2367C23.0511 16.1368 22.9361 16.0578 22.8094 16.0042C22.6828 15.9505 22.547 15.9235 22.4101 15.9245C22.2732 15.9255 22.1378 15.9546 22.0119 16.0101C21.886 16.0656 21.7721 16.1464 21.6769 16.2477C21.4832 16.4469 21.3743 16.7173 21.3741 16.9992C21.3739 17.2812 21.4825 17.5516 21.6758 17.7511C21.8692 17.9506 22.1316 18.0628 22.4052 18.063C22.6789 18.0632 22.9414 17.9514 23.1351 17.7522H23.133ZM14.3839 19.2546C14.2887 19.1531 14.1749 19.0722 14.0491 19.0165C13.9233 18.9608 13.788 18.9315 13.6511 18.9302C13.5141 18.929 13.3783 18.9559 13.2516 19.0093C13.1249 19.0628 13.0097 19.1416 12.9129 19.2414C12.8161 19.3412 12.7395 19.4598 12.6876 19.5904C12.6358 19.721 12.6097 19.8609 12.6109 20.0019C12.6121 20.143 12.6405 20.2824 12.6946 20.4121C12.7486 20.5417 12.8272 20.6589 12.9257 20.757C13.1202 20.9505 13.3807 21.0576 13.6511 21.0552C13.9215 21.0527 14.1801 20.941 14.3713 20.744C14.5625 20.547 14.671 20.2805 14.6733 20.0019C14.6757 19.7234 14.5717 19.455 14.3839 19.2546ZM17.3002 17.7522C17.3961 17.6536 17.4722 17.5364 17.5241 17.4075C17.5761 17.2785 17.6029 17.1403 17.603 17.0007C17.6031 16.8611 17.5765 16.7228 17.5247 16.5938C17.4729 16.4648 17.397 16.3476 17.3013 16.2488C17.2055 16.15 17.0918 16.0716 16.9667 16.0181C16.8415 15.9646 16.7074 15.937 16.5719 15.9369C16.4364 15.9368 16.3022 15.9642 16.177 16.0175C16.0517 16.0708 15.9379 16.1491 15.8421 16.2477C15.6484 16.4469 15.5395 16.7173 15.5393 16.9992C15.5391 17.2812 15.6477 17.5516 15.841 17.7511C16.0344 17.9506 16.2968 18.0628 16.5704 18.063C16.8441 18.0632 17.1066 17.9514 17.3002 17.7522ZM20.2166 13.243C20.1215 13.1415 20.0077 13.0605 19.8819 13.0048C19.7561 12.9492 19.6207 12.9198 19.4838 12.9186C19.3469 12.9174 19.2111 12.9443 19.0844 12.9977C18.9576 13.0511 18.8425 13.13 18.7456 13.2298C18.6488 13.3295 18.5722 13.4482 18.5204 13.5788C18.4685 13.7093 18.4425 13.8492 18.4436 13.9903C18.4448 14.1314 18.4733 14.2708 18.5273 14.4004C18.5814 14.5301 18.6599 14.6473 18.7584 14.7453C18.9529 14.9389 19.2134 15.046 19.4838 15.0435C19.7542 15.0411 20.0129 14.9294 20.2041 14.7324C20.3953 14.5354 20.5037 14.2689 20.5061 13.9903C20.5084 13.7117 20.4045 13.4433 20.2166 13.243ZM17.8324 7.1272L26.0824 15.6272L27.5426 14.1227L19.2926 5.6227L17.8324 7.1272ZM15.1676 26.8727L6.91762 18.3727L5.45736 19.8772L13.7074 28.3772L15.1676 26.8727Z" fill="#5FBED2"/>
</g>
<defs>
<clipPath id="clip0_19_373">
<rect width="33" height="34" fill="white"/>
</clipPath>
</defs>
</svg>
