<svg width="38" height="38" viewBox="0 0 38 38" fill="none" xmlns="http://www.w3.org/2000/svg">
<g clip-path="url(#clip0_19_368)">
<path d="M35.0528 14.5395L30.0757 12.8325C28.6448 12.3426 27.5864 11.2798 27.245 9.98914L26.0575 5.50262C25.1981 2.25406 20.3746 1.2625 17.8935 3.82379L14.4727 7.36551C13.4886 8.38305 11.9834 8.91891 10.4501 8.79867L5.11373 8.38156C1.25435 8.07949 -1.33811 11.7132 0.734821 14.5298L3.59521 18.4204C4.41755 19.5389 4.5467 20.9334 3.93959 22.1491L1.82955 26.3796C0.29693 29.4404 3.52248 32.6778 7.28166 31.857L12.477 30.7229C13.9695 30.3971 15.5533 30.7229 16.7126 31.5935L20.7442 34.6238C23.6625 36.8177 28.2403 35.1857 28.4963 31.8614L28.8452 27.2702C28.9454 25.9491 29.7952 24.7564 31.1185 24.0788L35.7201 21.7231C39.048 20.0191 38.6554 15.773 35.0528 14.5395ZM11.8751 19C11.4053 19 10.9461 18.8607 10.5556 18.5998C10.165 18.3388 9.8606 17.9679 9.68084 17.5339C9.50108 17.0999 9.45405 16.6224 9.54569 16.1617C9.63733 15.701 9.86353 15.2778 10.1957 14.9457C10.5278 14.6135 10.951 14.3873 11.4117 14.2957C11.8724 14.204 12.35 14.2511 12.7839 14.4308C13.2179 14.6106 13.5888 14.915 13.8498 15.3056C14.1108 15.6961 14.2501 16.1553 14.2501 16.625C14.2501 17.2549 13.9998 17.859 13.5544 18.3044C13.109 18.7498 12.5049 19 11.8751 19ZM21.3751 26.125C20.9053 26.125 20.4461 25.9857 20.0556 25.7248C19.665 25.4638 19.3606 25.0929 19.1808 24.6589C19.0011 24.2249 18.954 23.7474 19.0457 23.2867C19.1373 22.826 19.3635 22.4028 19.6957 22.0707C20.0278 21.7385 20.451 21.5123 20.9117 21.4207C21.3724 21.329 21.85 21.3761 22.2839 21.5558C22.7179 21.7356 23.0888 22.04 23.3498 22.4306C23.6108 22.8211 23.7501 23.2803 23.7501 23.75C23.7501 24.3799 23.4998 24.984 23.0544 25.4294C22.609 25.8748 22.0049 26.125 21.3751 26.125ZM22.5626 16.625C22.3277 16.625 22.0981 16.5554 21.9028 16.4249C21.7075 16.2944 21.5553 16.109 21.4654 15.892C21.3756 15.675 21.3521 15.4362 21.3979 15.2059C21.4437 14.9755 21.5568 14.7639 21.7229 14.5979C21.8889 14.4318 22.1005 14.3187 22.3309 14.2729C22.5612 14.227 22.8 14.2506 23.017 14.3404C23.234 14.4303 23.4194 14.5825 23.5499 14.7778C23.6804 14.9731 23.7501 15.2027 23.7501 15.4375C23.7501 15.7525 23.6249 16.0545 23.4022 16.2772C23.1795 16.4999 22.8775 16.625 22.5626 16.625Z" fill="#483222"/>
</g>
<defs>
<clipPath id="clip0_19_368">
<rect width="38" height="38" fill="white"/>
</clipPath>
</defs>
</svg>
