<svg width="88" height="90" viewBox="0 0 88 90" fill="none" xmlns="http://www.w3.org/2000/svg">
<path d="M87.5486 88.2002C87.2515 88.7476 86.8241 89.202 86.3094 89.518C85.7947 89.8339 85.2108 90.0001 84.6166 90H3.38133C2.78747 89.9994 2.20422 89.8326 1.69015 89.5164C1.17607 89.2002 0.749277 88.7457 0.45261 88.1986C0.155942 87.6516 -0.000152351 87.0311 1.11579e-07 86.3996C0.000152574 85.768 0.156546 85.1477 0.453478 84.6007C6.89729 72.7538 16.8275 64.259 28.4162 60.232C22.6839 56.6031 18.2302 51.0734 15.7392 44.4923C13.2481 37.9111 12.8574 30.6423 14.6271 23.8021C16.3967 16.9619 20.2288 10.9286 25.535 6.6287C30.8411 2.32878 37.3278 0 43.9989 0C50.6701 0 57.1568 2.32878 62.4629 6.6287C67.7691 10.9286 71.6012 16.9619 73.3708 23.8021C75.1404 30.6423 74.7497 37.9111 72.2587 44.4923C69.7677 51.0734 65.314 56.6031 59.5817 60.232C71.1704 64.259 81.1006 72.7538 87.5444 84.6007C87.8421 85.1475 87.9993 85.768 88 86.3999C88.0007 87.0317 87.8451 87.6527 87.5486 88.2002Z" fill="black"/>
</svg>
